
        <svg xmlns="http://www.w3.org/2000/svg" xmlns:xlink="http://www.w3.org/1999/xlink" version="1.1" width="3187.3360780731637" height="1124.6958193707128" viewBox="0 0 3187.3360780731637 1124.6958193707128">
			
			<g transform="scale(9.366803903658214) translate(10, 10)">
				<defs id="SvgjsDefs20776"/><g id="SvgjsG20777" featureKey="symbolFeature-0" transform="matrix(1.1408046732328154,0,0,1.1408046732328154,2.7157935717285993,-7.79625926307597)" fill="#fff"><path xmlns="http://www.w3.org/2000/svg" d="M50,93.166C26.198,93.166,6.834,73.802,6.834,50S26.198,6.834,50,6.834S93.166,26.198,93.166,50S73.802,93.166,50,93.166z   M50,8.834C27.301,8.834,8.834,27.301,8.834,50S27.301,91.166,50,91.166S91.166,72.699,91.166,50S72.699,8.834,50,8.834z"/><path xmlns="http://www.w3.org/2000/svg" d="M44.714,46.55l-0.107-0.742c18.198-2.623,28.245-13.025,31.72-17.375l0.586,0.468C73.382,33.32,63.177,43.889,44.714,46.55z  "/><circle xmlns="http://www.w3.org/2000/svg" cx="44.793" cy="46.114" r="2.82"/><circle xmlns="http://www.w3.org/2000/svg" cx="76.514" cy="28.767" r="2.82"/><path xmlns="http://www.w3.org/2000/svg" d="M33.874,80.997c-3.484-4.387-9.012-13.539-6.895-25.552l0.738,0.131c-2.066,11.723,3.338,20.666,6.743,24.954L33.874,80.997  z"/><circle xmlns="http://www.w3.org/2000/svg" cx="27.345" cy="55.653" r="2.82"/><circle xmlns="http://www.w3.org/2000/svg" cx="34.08" cy="80.649" r="2.82"/><path xmlns="http://www.w3.org/2000/svg" d="M78.553,58.284l-0.75-0.021c0.262-9.375-3.322-18.348-10.093-25.265c-7.05-7.204-16.891-11.292-27.026-11.233l-0.005-0.75  c10.321-0.04,20.376,4.11,27.567,11.458C75.16,39.537,78.82,48.704,78.553,58.284z"/><circle xmlns="http://www.w3.org/2000/svg" cx="78.128" cy="58.131" r="2.82"/><circle xmlns="http://www.w3.org/2000/svg" cx="40.819" cy="21.442" r="2.82"/><path xmlns="http://www.w3.org/2000/svg" d="M55.399,79.061c-22.622-1.116-37.959-15.928-44.77-29.418c-5.007-9.918-5.79-19.582-2.043-25.222  c2.418-3.64,6.575-5.361,12.009-4.983l-0.052,0.748c-5.164-0.361-9.073,1.249-11.333,4.65c-3.598,5.416-2.798,14.791,2.088,24.469  c6.715,13.302,21.837,27.906,44.138,29.006L55.399,79.061z"/><circle xmlns="http://www.w3.org/2000/svg" cx="55.277" cy="78.637" r="2.82"/><path xmlns="http://www.w3.org/2000/svg" d="M23.574,83.267C13.12,81.553,6.04,74.011,5.536,64.052c-0.484-9.58,5.413-20.969,19.679-24.818l0.195,0.724  C11.548,43.698,5.816,54.734,6.286,64.014c0.386,7.634,5.162,16.505,17.41,18.513L23.574,83.267z"/><circle xmlns="http://www.w3.org/2000/svg" cx="25.179" cy="39.64" r="2.82"/><path xmlns="http://www.w3.org/2000/svg" d="M72.426,94.555c-0.325,0-0.654-0.015-0.988-0.046c-6.336-0.589-12.075-6.442-15.354-15.658l0.707-0.252  c3.178,8.934,8.679,14.602,14.716,15.163c3.25,0.309,6.127-1.001,7.521-3.397c1.443-2.479,1.026-5.686-1.145-8.796l0.615-0.43  c2.345,3.36,2.773,6.86,1.178,9.603C78.278,93.144,75.556,94.555,72.426,94.555z"/><path xmlns="http://www.w3.org/2000/svg" d="M63.068,18.924l-0.713-0.234c1.704-5.167,4.714-8.496,8.26-9.131c2.183-0.394,4.329,0.351,5.595,1.938  c1.251,1.568,1.453,3.679,0.556,5.79l-0.689-0.293c0.786-1.85,0.621-3.683-0.452-5.029c-1.094-1.371-2.963-2.01-4.877-1.667  C67.481,10.882,64.683,14.027,63.068,18.924z"/><circle xmlns="http://www.w3.org/2000/svg" cx="62.771" cy="18.677" r="2.82"/></g><g id="SvgjsG20778" featureKey="nameFeature-0" transform="matrix(1.0679195253806875,0,0,1.0679195253806875,121.06791939807476,9.66253866841177)" fill="#fff"><path d="M2.84 13 c0 -1.2 1 -2.2 2.2 -2.2 c0.6 0 1.12 0.24 1.56 0.64 c0.4 0.44 0.6 0.96 0.6 1.56 s-0.2 1.12 -0.6 1.56 c-0.44 0.4 -0.96 0.64 -1.56 0.64 s-1.12 -0.24 -1.52 -0.68 c-0.44 -0.4 -0.68 -0.92 -0.68 -1.52 z M3.6 20.12 l2.88 0 l0 24.12 c0 3.72 -1.92 5.68 -5.64 5.68 c-0.44 0 -1.08 -0.08 -1.84 -0.28 l0 -2.4 c0.4 0.08 0.88 0.12 1.4 0.12 c2.04 0 3.2 -1.16 3.2 -3.16 l0 -24.08 z M21.84 40.36 c-1.84 0 -3.6 -0.48 -5.16 -1.36 c-1.56 -0.92 -2.8 -2.16 -3.68 -3.72 c-0.92 -1.56 -1.36 -3.28 -1.36 -5.16 c0 -2.92 0.96 -5.4 2.96 -7.36 c1.96 -2 4.4 -3 7.32 -3 c5.64 -0.12 10.36 4.64 10.28 10.24 c0.08 5.76 -4.64 10.48 -10.36 10.36 z M21.92 37.76 c2.08 0 3.84 -0.76 5.24 -2.24 c1.36 -1.48 2.04 -3.28 2.04 -5.4 s-0.68 -3.96 -2.08 -5.52 c-1.4 -1.52 -3.12 -2.28 -5.28 -2.28 c-2.08 0 -3.84 0.76 -5.2 2.24 s-2.04 3.28 -2.04 5.44 c-0.08 4.12 3.08 7.84 7.32 7.76 z M57.2 30.04 c0 3.6 -1.56 6.84 -4.44 8.8 c-1.44 0.96 -3.08 1.44 -4.92 1.44 c-3.24 0 -5.84 -1.48 -7.72 -4.48 l0 4.2 l-2.84 0 l0 -30.32 l2.92 0 l0 14.72 c2 -3.08 4.56 -4.64 7.64 -4.64 c2.76 0 5.24 1.24 6.84 3.2 c1.56 1.92 2.52 4.48 2.52 7.08 z M47.28 37.76 c2.12 0 3.8 -0.76 5.08 -2.2 c1.24 -1.48 1.88 -3.28 1.88 -5.44 c0 -2.8 -1.08 -5.24 -3.24 -6.68 c-1.04 -0.72 -2.32 -1.08 -3.72 -1.08 c-4.04 -0.08 -7.24 3.68 -7.12 7.64 c0 2.08 0.64 3.92 2 5.44 c1.36 1.56 3.04 2.32 5.12 2.32 z M63.08 40 l0 -29.16 l8.68 0 c2.24 0 4.32 0.36 6.24 1.12 c1.92 0.72 3.56 1.76 4.88 3.04 c2.68 2.6 4.28 6.28 4.28 10.36 c0 2.12 -0.4 4.12 -1.2 5.96 s-1.92 3.36 -3.28 4.64 c-2.76 2.52 -6.68 4.04 -10.92 4.04 l-8.68 0 z M66.16 13.719999999999999 l0 23.4 l5.48 0 c2.44 0 4.6 -0.52 6.44 -1.52 c1.88 -1 3.36 -2.36 4.36 -4.12 c1.04 -1.76 1.56 -3.8 1.56 -6.04 c0 -3.32 -1.24 -6.28 -3.36 -8.4 c-2.08 -2.08 -5.32 -3.32 -9 -3.32 l-5.48 0 z M92.2 20.12 l2.88 0 l0 11.56 c0 1.84 0.48 3.32 1.44 4.4 c0.92 1.12 2.28 1.64 4.08 1.64 c1.72 0 3.12 -0.6 4.24 -1.8 s1.68 -2.68 1.68 -4.48 l0 -11.32 l2.88 0 l0 19.88 l-2.84 0 l0 -3.64 c-1.6 2.68 -3.84 4.04 -6.84 4.04 c-2.36 0 -4.2 -0.76 -5.56 -2.2 c-1.32 -1.48 -1.96 -3.4 -1.96 -5.8 l0 -12.28 z M133.2 40 l-2.92 0 l0 -11.56 c0 -1.84 -0.44 -3.28 -1.4 -4.4 c-0.92 -1.08 -2.28 -1.64 -4.08 -1.64 c-1.72 0 -3.16 0.6 -4.28 1.8 c-1.08 1.2 -1.64 2.68 -1.64 4.48 l0 11.32 l-2.92 0 l0 -19.88 l2.84 0 l0 3.64 c1.6 -2.68 3.88 -4 6.88 -4 c2.36 0 4.2 0.72 5.56 2.16 c1.28 1.48 1.96 3.4 1.96 5.8 l0 12.28 z M139.43999999999997 14.559999999999999 c-0.4 -0.44 -0.64 -0.96 -0.64 -1.56 s0.24 -1.12 0.64 -1.56 c0.4 -0.4 0.96 -0.64 1.56 -0.64 s1.12 0.24 1.52 0.64 c0.44 0.44 0.64 0.96 0.64 1.56 s-0.2 1.12 -0.64 1.56 c-0.4 0.4 -0.92 0.64 -1.52 0.64 s-1.16 -0.24 -1.56 -0.64 z M139.51999999999998 40 l0 -19.88 l2.92 0 l0 19.88 l-2.92 0 z M153.55999999999997 49.8 l-3.16 0 l5.16 -11.16 l-9.04 -18.52 l3.32 0 l7.28 15.36 l6.92 -15.36 l3.12 0 z M177.59999999999997 28.52 l5.52 0 l0 -1.32 c0 -3.2 -1.76 -4.84 -5.08 -4.84 c-1.6 0 -2.96 0.52 -3.76 1.32 s-1.28 1.72 -1.44 2.72 l-2.8 -0.6 c0.04 -1 1 -2.96 2.8 -4.4 c1.2 -0.92 3.12 -1.64 5.28 -1.64 c3.64 0 6.04 1.36 7.24 4.12 c0.4 0.92 0.6 2 0.6 3.28 l0 5.6 c0 3.32 0.12 5.76 0.32 7.24 l-2.88 0 c-0.16 -0.88 -0.28 -2.04 -0.28 -3.48 l0 0 c-1.68 2.56 -3.88 3.84 -6.72 3.84 c-1.96 0 -3.6 -0.56 -4.8 -1.68 c-1.24 -1.08 -1.88 -2.48 -1.88 -4.2 l0 -0.2 c0 -4.32 4.32 -5.76 7.88 -5.76 z M183.11999999999998 31.6 l0 -0.68 l-5.56 0 c-1.16 0 -2.24 0.2 -3.24 0.68 c-1 0.44 -1.68 1.4 -1.68 2.64 c0 1.12 0.4 1.96 1.24 2.6 c0.8 0.64 1.8 0.96 3.04 0.96 c1.76 0 3.24 -0.6 4.44 -1.76 c1.16 -1.12 1.76 -2.64 1.76 -4.44 z"/></g><g id="SvgjsG20779" featureKey="sloganFeature-0" transform="matrix(0.4,0,0,0.4,114.35199909210205,71.14400100708008)" fill="#fff"><path d="M20.4 7 l-1.4 1.64 q-0.82 -0.84 -1.96 -1.32 t-2.4 -0.48 q-1.64 0 -2.99 0.74 t-2.11 2.02 q-0.78 1.34 -0.78 2.98 q0 1.56 0.84 2.88 q0.8 1.24 2.15 1.97 t2.91 0.73 q1.44 0 2.68 -0.62 t2.06 -1.72 l1.34 1.82 q-1.14 1.28 -2.73 1.99 t-3.37 0.71 q-2.22 0 -4.08 -1.08 q-1.82 -1.04 -2.86 -2.86 q-1.08 -1.86 -1.08 -4.08 q0 -2.14 1.14 -3.94 q1.08 -1.72 2.93 -2.73 t3.97 -1.01 q1.66 0 3.16 0.64 q1.46 0.6 2.58 1.72 z M36.84 12.440000000000001 q0 -1.6 -0.82 -2.9 q-0.78 -1.26 -2.13 -1.98 t-2.93 -0.72 q-1.64 0 -2.99 0.74 t-2.11 2.02 q-0.78 1.34 -0.78 2.98 q0 1.56 0.84 2.88 q0.8 1.24 2.15 1.97 t2.92 0.73 t2.92 -0.76 t2.13 -2.04 q0.8 -1.34 0.8 -2.92 z M39 12.559999999999999 q0 2.16 -1.12 3.98 q-1.08 1.74 -2.93 2.77 t-3.99 1.03 q-2.22 0 -4.08 -1.08 q-1.82 -1.04 -2.86 -2.86 q-1.08 -1.86 -1.08 -4.08 q0 -2.14 1.14 -3.94 q1.08 -1.72 2.93 -2.73 t3.97 -1.01 q2.18 0 4.04 1.06 q1.82 1.04 2.88 2.82 q1.1 1.86 1.1 4.04 z M42.84 7.18 l-1.74 -2.1 l2.82 0 l9.58 11.4 l0 -11.4 l2.2 0 l0 14.92 l-2.16 0 l-8.56 -10.26 l0 10.26 l-2.14 0 l0 -12.82 z M60.540000000000006 7.18 l-1.74 -2.1 l2.82 0 l9.58 11.4 l0 -11.4 l2.2 0 l0 14.92 l-2.16 0 l-8.56 -10.26 l0 10.26 l-2.14 0 l0 -12.82 z M79.98 14.02 l0 3.8 l9.2 0 l0 2.18 l-11.38 0 l0 -14.92 l10.5 0 l0 2.2 l-8.32 0 l0 4.52 q0.62 -0.36 1.38 -0.48 q0.56 -0.1 1.44 -0.1 l3.26 0 l0 2.22 l-3.26 0 q-0.82 0 -1.44 0.1 q-0.76 0.14 -1.38 0.48 z M105.46000000000001 7 l-1.4 1.64 q-0.82 -0.84 -1.96 -1.32 t-2.4 -0.48 q-1.64 0 -2.99 0.74 t-2.11 2.02 q-0.78 1.34 -0.78 2.98 q0 1.56 0.84 2.88 q0.8 1.24 2.15 1.97 t2.91 0.73 q1.44 0 2.68 -0.62 t2.06 -1.72 l1.34 1.82 q-1.14 1.28 -2.73 1.99 t-3.37 0.71 q-2.22 0 -4.08 -1.08 q-1.82 -1.04 -2.86 -2.86 q-1.08 -1.86 -1.08 -4.08 q0 -2.14 1.14 -3.94 q1.08 -1.72 2.93 -2.73 t3.97 -1.01 q1.66 0 3.16 0.64 q1.46 0.6 2.58 1.72 z M120.10000000000001 7.279999999999999 l-5.26 0 l0 12.72 l-2.12 0 l0 -12.72 l-5.32 0 l0 -2.2 l12.7 0 l0 2.2 z M125.04000000000002 20 l-2.14 0 l0 -14.92 l2.14 0 l0 14.92 z M129.88000000000002 7.18 l-1.74 -2.1 l2.82 0 l9.58 11.4 l0 -11.4 l2.2 0 l0 14.92 l-2.16 0 l-8.56 -10.26 l0 10.26 l-2.14 0 l0 -12.82 z M159.92000000000002 7 l-1.4 1.64 q-0.82 -0.84 -1.96 -1.32 t-2.4 -0.48 q-1.64 0 -2.99 0.74 t-2.11 2.02 q-0.78 1.34 -0.78 2.98 q0 1.56 0.84 2.88 q0.8 1.24 2.15 1.97 t2.91 0.73 q1.1 0 2.11 -0.38 t1.81 -1.06 l0 -2.72 l-1.92 0 l-0.94 -2.16 l5.02 0 l0 5.8 q-1.14 1.28 -2.73 1.99 t-3.37 0.71 q-2.22 0 -4.08 -1.08 q-1.82 -1.04 -2.86 -2.86 q-1.08 -1.86 -1.08 -4.08 q0 -2.14 1.14 -3.94 q1.08 -1.72 2.93 -2.73 t3.97 -1.01 q1.66 0 3.16 0.64 q1.46 0.6 2.58 1.72 z M172.36 7.279999999999999 l0 10.54 l3.38 0 q1.4 0 2.52 -0.72 q1.06 -0.7 1.66 -1.88 t0.6 -2.58 q0 -1.46 -0.57 -2.68 t-1.63 -1.94 q-1.14 -0.74 -2.62 -0.74 l-3.34 0 z M169.04000000000002 7.279999999999999 l-0.96 -2.2 l7.6 0 q1.98 0 3.62 1.02 q1.58 0.98 2.5 2.68 t0.92 3.7 q0 1.5 -0.59 2.97 t-1.63 2.57 q-1 1.08 -2.14 1.54 q-1.1 0.44 -2.62 0.44 l-5.52 0 l0 -12.72 l-1.18 0 z M188.3 7.26 l0 4.96 q0.62 -0.36 1.38 -0.48 q0.56 -0.1 1.44 -0.1 l2.84 0 q1.18 0 1.84 -0.54 q0.7 -0.58 0.7 -1.74 q0 -1.1 -0.74 -1.64 q-0.64 -0.46 -1.8 -0.46 l-5.66 0 z M194.68 17.64 l-1.82 -3.82 l-1.74 0 q-0.82 0 -1.44 0.1 q-0.76 0.14 -1.38 0.48 l0 5.6 l-2.18 0 l0 -14.92 l7.84 0 q1.38 0 2.44 0.52 t1.64 1.48 q0.62 1.02 0.62 2.4 q0 1.68 -0.9 2.76 t-2.54 1.5 l1.16 2.38 q0.5 0.74 0.78 1.04 q0.34 0.38 0.65 0.51 t0.81 0.13 l0.22 0 l0.48 -0.02 l0 2.22 q-1.16 0 -1.72 -0.08 q-0.94 -0.16 -1.6 -0.62 q-0.78 -0.56 -1.32 -1.66 z M205.10000000000002 14.02 l0 3.8 l9.2 0 l0 2.18 l-11.38 0 l0 -14.92 l10.5 0 l0 2.2 l-8.32 0 l0 4.52 q0.62 -0.36 1.38 -0.48 q0.56 -0.1 1.44 -0.1 l3.26 0 l0 2.22 l-3.26 0 q-0.82 0 -1.44 0.1 q-0.76 0.14 -1.38 0.48 z M222.46000000000004 6.66 l-0.82 -1.84 l2.4 0 l7.18 15.18 l-2.44 0 l-0.98 -2.18 l-4.54 0 q-1.28 0 -2.3 0.24 q-0.9 0.22 -1.5 0.58 q-0.54 0.32 -0.72 0.66 l-0.38 0.7 l-2.36 0 z M224.06000000000003 15.620000000000001 l2.76 0 l-3.26 -6.3 l-3.3 7.14 q0.44 -0.38 1.34 -0.6 q1.02 -0.24 2.46 -0.24 z M246.76000000000002 9.74 l-5.1 6.1 l-5.06 -6.1 l0 10.26 l-2.14 0 l0 -12.82 l-1.74 -2.1 l2.82 0 l6.1 7.32 l6.18 -7.32 l2.82 0 l-1.74 2.1 l0 12.82 l-2.14 0 l0 -10.26 z M265.34000000000003 15.46 q0 1.46 -0.88 2.6 q-0.86 1.08 -2.37 1.68 t-3.41 0.6 q-1.74 0 -3.38 -0.81 t-2.76 -2.25 l1.56 -1.46 q1.94 2.34 4.58 2.34 q1.16 0 2.12 -0.28 q1.06 -0.32 1.64 -0.9 q0.66 -0.64 0.66 -1.52 q0 -1.06 -0.66 -1.6 q-0.56 -0.46 -1.66 -0.6 q-0.64 -0.08 -2.1 -0.08 q-2.68 0 -4.09 -0.98 t-1.41 -2.88 q0 -1.2 0.71 -2.28 t1.95 -1.72 q1.28 -0.68 2.84 -0.68 q1.76 0 3.18 0.54 q1.52 0.58 2.82 1.82 l-1.36 1.6 q-1.22 -0.98 -2.22 -1.37 t-2.42 -0.39 q-0.82 0 -1.53 0.34 t-1.13 0.91 t-0.42 1.21 q0 1.72 3.18 1.72 q2.54 0 4.02 0.52 q1.4 0.5 2 1.52 q0.54 0.9 0.54 2.4 z M267.34000000000003 18.76 q0 -0.5 0.34 -0.85 t0.84 -0.35 q0.62 0 0.98 0.44 q0.3 0.38 0.3 0.97 t-0.28 1.26 t-0.78 1.23 q-0.54 0.62 -1.22 0.96 l-0.46 -0.6 q0.7 -0.54 0.99 -0.97 t0.29 -0.91 q-0.44 -0.06 -0.72 -0.39 t-0.28 -0.79 z M291.12000000000006 7 l-1.4 1.64 q-0.82 -0.84 -1.96 -1.32 t-2.4 -0.48 q-1.64 0 -2.99 0.74 t-2.11 2.02 q-0.78 1.34 -0.78 2.98 q0 1.56 0.84 2.88 q0.8 1.24 2.15 1.97 t2.91 0.73 q1.44 0 2.68 -0.62 t2.06 -1.72 l1.34 1.82 q-1.14 1.28 -2.73 1.99 t-3.37 0.71 q-2.22 0 -4.08 -1.08 q-1.82 -1.04 -2.86 -2.86 q-1.08 -1.86 -1.08 -4.08 q0 -2.14 1.14 -3.94 q1.08 -1.72 2.93 -2.73 t3.97 -1.01 q1.66 0 3.16 0.64 q1.46 0.6 2.58 1.72 z M296.84000000000003 7.26 l0 4.96 q0.62 -0.36 1.38 -0.48 q0.56 -0.1 1.44 -0.1 l2.84 0 q1.18 0 1.84 -0.54 q0.7 -0.58 0.7 -1.74 q0 -1.1 -0.74 -1.64 q-0.64 -0.46 -1.8 -0.46 l-5.66 0 z M303.22 17.64 l-1.82 -3.82 l-1.74 0 q-0.82 0 -1.44 0.1 q-0.76 0.14 -1.38 0.48 l0 5.6 l-2.18 0 l0 -14.92 l7.84 0 q1.38 0 2.44 0.52 t1.64 1.48 q0.62 1.02 0.62 2.4 q0 1.68 -0.9 2.76 t-2.54 1.5 l1.16 2.38 q0.5 0.74 0.78 1.04 q0.34 0.38 0.65 0.51 t0.81 0.13 l0.22 0 l0.48 -0.02 l0 2.22 q-1.16 0 -1.72 -0.08 q-0.94 -0.16 -1.6 -0.62 q-0.78 -0.56 -1.32 -1.66 z M313.64000000000004 14.02 l0 3.8 l9.2 0 l0 2.18 l-11.38 0 l0 -14.92 l10.5 0 l0 2.2 l-8.32 0 l0 4.52 q0.62 -0.36 1.38 -0.48 q0.56 -0.1 1.44 -0.1 l3.26 0 l0 2.22 l-3.26 0 q-0.82 0 -1.44 0.1 q-0.76 0.14 -1.38 0.48 z M331.00000000000006 6.66 l-0.82 -1.84 l2.4 0 l7.18 15.18 l-2.44 0 l-0.98 -2.18 l-4.54 0 q-1.28 0 -2.3 0.24 q-0.9 0.22 -1.5 0.58 q-0.54 0.32 -0.72 0.66 l-0.38 0.7 l-2.36 0 z M332.6 15.620000000000001 l2.76 0 l-3.26 -6.3 l-3.3 7.14 q0.44 -0.38 1.34 -0.6 q1.02 -0.24 2.46 -0.24 z M353.66 7.279999999999999 l-5.26 0 l0 12.72 l-2.12 0 l0 -12.72 l-5.32 0 l0 -2.2 l12.7 0 l0 2.2 z M358.59999999999997 20 l-2.14 0 l0 -14.92 l2.14 0 l0 14.92 z M363.44 7.18 l-1.74 -2.1 l2.82 0 l9.58 11.4 l0 -11.4 l2.2 0 l0 14.92 l-2.16 0 l-8.56 -10.26 l0 10.26 l-2.14 0 l0 -12.82 z M393.48 7 l-1.4 1.64 q-0.82 -0.84 -1.96 -1.32 t-2.4 -0.48 q-1.64 0 -2.99 0.74 t-2.11 2.02 q-0.78 1.34 -0.78 2.98 q0 1.56 0.84 2.88 q0.8 1.24 2.15 1.97 t2.91 0.73 q1.1 0 2.11 -0.38 t1.81 -1.06 l0 -2.72 l-1.92 0 l-0.94 -2.16 l5.02 0 l0 5.8 q-1.14 1.28 -2.73 1.99 t-3.37 0.71 q-2.22 0 -4.08 -1.08 q-1.82 -1.04 -2.86 -2.86 q-1.08 -1.86 -1.08 -4.08 q0 -2.14 1.14 -3.94 q1.08 -1.72 2.93 -2.73 t3.97 -1.01 q1.66 0 3.16 0.64 q1.46 0.6 2.58 1.72 z M415.72 7 l-1.4 1.64 q-0.82 -0.84 -1.96 -1.32 t-2.4 -0.48 q-1.64 0 -2.99 0.74 t-2.11 2.02 q-0.78 1.34 -0.78 2.98 q0 1.56 0.84 2.88 q0.8 1.24 2.15 1.97 t2.91 0.73 q1.44 0 2.68 -0.62 t2.06 -1.72 l1.34 1.82 q-1.14 1.28 -2.73 1.99 t-3.37 0.71 q-2.22 0 -4.08 -1.08 q-1.82 -1.04 -2.86 -2.86 q-1.08 -1.86 -1.08 -4.08 q0 -2.14 1.14 -3.94 q1.08 -1.72 2.93 -2.73 t3.97 -1.01 q1.66 0 3.16 0.64 q1.46 0.6 2.58 1.72 z M423.92 6.66 l-0.82 -1.84 l2.4 0 l7.18 15.18 l-2.44 0 l-0.98 -2.18 l-4.54 0 q-1.28 0 -2.3 0.24 q-0.9 0.22 -1.5 0.58 q-0.54 0.32 -0.72 0.66 l-0.38 0.7 l-2.36 0 z M425.52 15.620000000000001 l2.76 0 l-3.26 -6.3 l-3.3 7.14 q0.44 -0.38 1.34 -0.6 q1.02 -0.24 2.46 -0.24 z M437.65999999999997 7.26 l0 4.96 q0.62 -0.36 1.38 -0.48 q0.56 -0.1 1.44 -0.1 l2.84 0 q1.18 0 1.84 -0.54 q0.7 -0.58 0.7 -1.74 q0 -1.1 -0.74 -1.64 q-0.64 -0.46 -1.8 -0.46 l-5.66 0 z M444.03999999999996 17.64 l-1.82 -3.82 l-1.74 0 q-0.82 0 -1.44 0.1 q-0.76 0.14 -1.38 0.48 l0 5.6 l-2.18 0 l0 -14.92 l7.84 0 q1.38 0 2.44 0.52 t1.64 1.48 q0.62 1.02 0.62 2.4 q0 1.68 -0.9 2.76 t-2.54 1.5 l1.16 2.38 q0.5 0.74 0.78 1.04 q0.34 0.38 0.65 0.51 t0.81 0.13 l0.22 0 l0.48 -0.02 l0 2.22 q-1.16 0 -1.72 -0.08 q-0.94 -0.16 -1.6 -0.62 q-0.78 -0.56 -1.32 -1.66 z M454.46 14.02 l0 3.8 l9.2 0 l0 2.18 l-11.38 0 l0 -14.92 l10.5 0 l0 2.2 l-8.32 0 l0 4.52 q0.62 -0.36 1.38 -0.48 q0.56 -0.1 1.44 -0.1 l3.26 0 l0 2.22 l-3.26 0 q-0.82 0 -1.44 0.1 q-0.76 0.14 -1.38 0.48 z M469.34 14.02 l0 3.8 l9.2 0 l0 2.18 l-11.38 0 l0 -14.92 l10.5 0 l0 2.2 l-8.32 0 l0 4.52 q0.62 -0.36 1.38 -0.48 q0.56 -0.1 1.44 -0.1 l3.26 0 l0 2.22 l-3.26 0 q-0.82 0 -1.44 0.1 q-0.76 0.14 -1.38 0.48 z M484.21999999999997 7.26 l0 4.96 q0.62 -0.36 1.38 -0.48 q0.56 -0.1 1.44 -0.1 l2.84 0 q1.18 0 1.84 -0.54 q0.7 -0.58 0.7 -1.74 q0 -1.1 -0.74 -1.64 q-0.64 -0.46 -1.8 -0.46 l-5.66 0 z M490.59999999999997 17.64 l-1.82 -3.82 l-1.74 0 q-0.82 0 -1.44 0.1 q-0.76 0.14 -1.38 0.48 l0 5.6 l-2.18 0 l0 -14.92 l7.84 0 q1.38 0 2.44 0.52 t1.64 1.48 q0.62 1.02 0.62 2.4 q0 1.68 -0.9 2.76 t-2.54 1.5 l1.16 2.38 q0.5 0.74 0.78 1.04 q0.34 0.38 0.65 0.51 t0.81 0.13 l0.22 0 l0.48 -0.02 l0 2.22 q-1.16 0 -1.72 -0.08 q-0.94 -0.16 -1.6 -0.62 q-0.78 -0.56 -1.32 -1.66 z M510.44 15.46 q0 1.46 -0.88 2.6 q-0.86 1.08 -2.37 1.68 t-3.41 0.6 q-1.74 0 -3.38 -0.81 t-2.76 -2.25 l1.56 -1.46 q1.94 2.34 4.58 2.34 q1.16 0 2.12 -0.28 q1.06 -0.32 1.64 -0.9 q0.66 -0.64 0.66 -1.52 q0 -1.06 -0.66 -1.6 q-0.56 -0.46 -1.66 -0.6 q-0.64 -0.08 -2.1 -0.08 q-2.68 0 -4.09 -0.98 t-1.41 -2.88 q0 -1.2 0.71 -2.28 t1.95 -1.72 q1.28 -0.68 2.84 -0.68 q1.76 0 3.18 0.54 q1.52 0.58 2.82 1.82 l-1.36 1.6 q-1.22 -0.98 -2.22 -1.37 t-2.42 -0.39 q-0.82 0 -1.53 0.34 t-1.13 0.91 t-0.42 1.21 q0 1.72 3.18 1.72 q2.54 0 4.02 0.52 q1.4 0.5 2 1.52 q0.54 0.9 0.54 2.4 z M512.44 18.76 q0 -0.5 0.34 -0.85 t0.84 -0.35 t0.85 0.35 t0.35 0.85 t-0.35 0.84 t-0.85 0.34 t-0.84 -0.34 t-0.34 -0.84 z"/></g>
			</g>
		</svg>
	